STARTFONT 2.1
COMMENT
COMMENT Converted from OpenType font "Mario-Kart-DS.ttf" by "otf2bdf 3.0".
COMMENT
FONT -FreeType-Mario Kart DS-Medium-R-Normal--17-120-100-100-P-87-ISO10646-1
SIZE 12 100 100
FONTBOUNDINGBOX 11 14 0 -2
STARTPROPERTIES 19
FOUNDRY "FreeType"
FAMILY_NAME "Mario Kart DS"
WEIGHT_NAME "Medium"
SLANT "R"
SETWIDTH_NAME "Normal"
ADD_STYLE_NAME ""
PIXEL_SIZE 17
POINT_SIZE 120
RESOLUTION_X 100
RESOLUTION_Y 100
SPACING "P"
AVERAGE_WIDTH 87
CHARSET_REGISTRY "ISO10646"
CHARSET_ENCODING "1"
FONT_ASCENT 11
FONT_DESCENT 2
COPYRIGHT "Copyright David Fens 2013"
_OTF_FONTFILE "Mario-Kart-DS.ttf"
_OTF_PSNAME "Mario-Kart-DS"
ENDPROPERTIES
CHARS 69
STARTCHAR 0020
ENCODING 32
SWIDTH 120 0
DWIDTH 2 0
BBX 0 0 0 0
BITMAP
ENDCHAR
STARTCHAR 0021
ENCODING 33
SWIDTH 240 0
DWIDTH 4 0
BBX 3 10 0 0
BITMAP
E0
E0
E0
C0
C0
C0
C0
00
C0
C0
ENDCHAR
STARTCHAR 0026
ENCODING 38
SWIDTH 600 0
DWIDTH 10 0
BBX 9 10 0 0
BITMAP
3C00
6600
6600
3C00
2C00
4500
C780
C700
6F80
3900
ENDCHAR
STARTCHAR 002D
ENCODING 45
SWIDTH 360 0
DWIDTH 6 0
BBX 5 2 0 4
BITMAP
F8
F8
ENDCHAR
STARTCHAR 002E
ENCODING 46
SWIDTH 180 0
DWIDTH 3 0
BBX 2 2 0 0
BITMAP
C0
C0
ENDCHAR
STARTCHAR 0030
ENCODING 48
SWIDTH 540 0
DWIDTH 9 0
BBX 8 10 0 0
BITMAP
3C
7E
E7
C3
C3
C3
C3
E7
7E
3C
ENDCHAR
STARTCHAR 0031
ENCODING 49
SWIDTH 240 0
DWIDTH 4 0
BBX 3 10 0 0
BITMAP
E0
E0
60
60
60
60
60
60
60
60
ENDCHAR
STARTCHAR 0032
ENCODING 50
SWIDTH 480 0
DWIDTH 8 0
BBX 7 10 0 0
BITMAP
F8
FC
0E
1C
38
70
60
E0
FE
FE
ENDCHAR
STARTCHAR 0033
ENCODING 51
SWIDTH 480 0
DWIDTH 8 0
BBX 7 10 0 0
BITMAP
F8
FC
0E
1C
38
18
0C
0E
FC
F8
ENDCHAR
STARTCHAR 0034
ENCODING 52
SWIDTH 600 0
DWIDTH 10 0
BBX 9 10 0 0
BITMAP
0800
1C00
3800
7600
6600
C600
C600
3F80
3F80
0600
ENDCHAR
STARTCHAR 0035
ENCODING 53
SWIDTH 480 0
DWIDTH 8 0
BBX 7 10 0 0
BITMAP
FC
FC
80
80
FC
0C
0E
0E
FC
F8
ENDCHAR
STARTCHAR 0036
ENCODING 54
SWIDTH 600 0
DWIDTH 10 0
BBX 9 10 0 0
BITMAP
0800
1C00
3800
7000
FF00
E300
E380
E380
7F00
3E00
ENDCHAR
STARTCHAR 0037
ENCODING 55
SWIDTH 540 0
DWIDTH 9 0
BBX 8 10 0 0
BITMAP
FC
FE
C7
06
0E
0C
0C
1C
18
18
ENDCHAR
STARTCHAR 0038
ENCODING 56
SWIDTH 600 0
DWIDTH 10 0
BBX 9 10 0 0
BITMAP
3E00
6300
E380
7F00
3E00
2200
6300
E380
7F00
3E00
ENDCHAR
STARTCHAR 0039
ENCODING 57
SWIDTH 600 0
DWIDTH 10 0
BBX 9 10 0 0
BITMAP
3E00
7F00
E380
E380
7F00
0600
0600
0600
0C00
0C00
ENDCHAR
STARTCHAR 003F
ENCODING 63
SWIDTH 540 0
DWIDTH 9 0
BBX 8 10 0 0
BITMAP
3C
7E
E7
46
0C
1C
18
00
18
18
ENDCHAR
STARTCHAR 0041
ENCODING 65
SWIDTH 660 0
DWIDTH 11 0
BBX 10 13 0 -2
BITMAP
1F00
1180
30C0
2040
6E40
4E40
CE40
8040
8C40
8C40
8C40
FFC0
FFC0
ENDCHAR
STARTCHAR 0042
ENCODING 66
SWIDTH 660 0
DWIDTH 11 0
BBX 10 13 0 -2
BITMAP
FF00
8180
8080
9C80
9D80
80C0
9CC0
9C40
8040
80C0
81C0
FF80
FF00
ENDCHAR
STARTCHAR 0043
ENCODING 67
SWIDTH 660 0
DWIDTH 11 0
BBX 10 13 0 -2
BITMAP
1F00
3180
60C0
CC40
9EC0
9FC0
9EC0
8C40
8C40
C0C0
E1C0
7F80
3F00
ENDCHAR
STARTCHAR 0044
ENCODING 68
SWIDTH 600 0
DWIDTH 10 0
BBX 9 13 0 -2
BITMAP
FC00
8600
8300
9980
9C80
9C80
9880
9080
8180
8380
8700
FE00
FC00
ENDCHAR
STARTCHAR 0045
ENCODING 69
SWIDTH 600 0
DWIDTH 10 0
BBX 9 13 0 -2
BITMAP
FF80
8080
8080
9F80
9F00
8100
9F00
9F80
8080
8080
8080
FF80
FF80
ENDCHAR
STARTCHAR 0046
ENCODING 70
SWIDTH 600 0
DWIDTH 10 0
BBX 9 13 0 -2
BITMAP
FF80
8080
8080
9F80
9F00
8100
9F00
9F00
9000
9000
9000
F000
F000
ENDCHAR
STARTCHAR 0047
ENCODING 71
SWIDTH 660 0
DWIDTH 11 0
BBX 10 13 0 -2
BITMAP
1F00
3180
60C0
CC40
9FC0
9840
9E40
8C40
8040
C0C0
E1C0
7F80
3F00
ENDCHAR
STARTCHAR 0048
ENCODING 72
SWIDTH 660 0
DWIDTH 11 0
BBX 10 14 0 -2
BITMAP
FBC0
8A40
8A40
8A40
8E40
8040
8040
8040
8040
9E40
9E40
9240
F3C0
F3C0
ENDCHAR
STARTCHAR 0049
ENCODING 73
SWIDTH 420 0
DWIDTH 7 0
BBX 6 13 0 -2
BITMAP
FC
84
84
84
8C
8C
88
88
98
98
90
F0
F0
ENDCHAR
STARTCHAR 004A
ENCODING 74
SWIDTH 660 0
DWIDTH 11 0
BBX 10 13 0 -2
BITMAP
07C0
0440
0440
0640
0240
7240
5240
8C40
8C40
C0C0
E1C0
7F80
3F00
ENDCHAR
STARTCHAR 004B
ENCODING 75
SWIDTH 600 0
DWIDTH 10 0
BBX 9 13 0 -2
BITMAP
F700
9D80
9880
9180
8380
8700
8300
8100
9180
9880
9D80
FF80
F700
ENDCHAR
STARTCHAR 004C
ENCODING 76
SWIDTH 660 0
DWIDTH 11 0
BBX 10 13 0 -2
BITMAP
3C00
2400
2400
6400
4400
4C00
CC00
8FC0
8040
8040
8040
FFC0
FFC0
ENDCHAR
STARTCHAR 004D
ENCODING 77
SWIDTH 720 0
DWIDTH 12 0
BBX 11 13 0 -2
BITMAP
7BC0
4A40
4A40
4E40
4440
4040
C060
C060
9120
9B20
9F20
FFE0
F1E0
ENDCHAR
STARTCHAR 004E
ENCODING 78
SWIDTH 660 0
DWIDTH 11 0
BBX 10 13 0 -2
BITMAP
73C0
DA40
8E40
8640
8240
9040
9840
9840
9C40
9640
97C0
F3C0
F000
ENDCHAR
STARTCHAR 004F
ENCODING 79
SWIDTH 660 0
DWIDTH 11 0
BBX 10 13 0 -2
BITMAP
1F00
3180
60C0
CC40
9E40
9E40
9E40
8C40
8C40
C0C0
E1C0
7F80
3F00
ENDCHAR
STARTCHAR 0050
ENCODING 80
SWIDTH 600 0
DWIDTH 10 0
BBX 9 13 0 -2
BITMAP
FE00
8300
8180
9C80
9C80
9C80
8080
8180
9F80
9F00
9000
F000
F000
ENDCHAR
STARTCHAR 0051
ENCODING 81
SWIDTH 720 0
DWIDTH 12 0
BBX 11 13 0 -2
BITMAP
3F00
6180
C0C0
8C40
9E40
9E40
9840
8C60
8020
C020
E160
7FE0
3FC0
ENDCHAR
STARTCHAR 0052
ENCODING 82
SWIDTH 660 0
DWIDTH 11 0
BBX 10 13 0 -2
BITMAP
FF00
8180
80C0
9E40
9E40
9CC0
81C0
80C0
9840
9C40
9EC0
F7C0
F380
ENDCHAR
STARTCHAR 0053
ENCODING 83
SWIDTH 660 0
DWIDTH 11 0
BBX 10 13 0 -2
BITMAP
3F80
60C0
C040
8EC0
C7C0
F0C0
DC40
8E40
8040
C040
E0C0
7FC0
3F80
ENDCHAR
STARTCHAR 0054
ENCODING 84
SWIDTH 660 0
DWIDTH 11 0
BBX 10 13 0 -2
BITMAP
FFC0
8040
8040
F3C0
F3C0
1200
3200
2200
2200
2200
2200
3E00
3E00
ENDCHAR
STARTCHAR 0055
ENCODING 85
SWIDTH 720 0
DWIDTH 12 0
BBX 11 13 0 -2
BITMAP
F000
91E0
9120
9120
9120
9120
9F20
8E20
8020
C060
E0E0
7FC0
3F80
ENDCHAR
STARTCHAR 0056
ENCODING 86
SWIDTH 720 0
DWIDTH 12 0
BBX 11 13 0 -2
BITMAP
71C0
D160
9B20
8A20
CE60
C460
C460
60C0
3180
3180
3180
1F00
1F00
ENDCHAR
STARTCHAR 0057
ENCODING 87
SWIDTH 720 0
DWIDTH 12 0
BBX 11 13 0 -2
BITMAP
F1E0
9120
9120
9F20
9B20
9120
9120
8020
C460
CE60
5F40
7BC0
71C0
ENDCHAR
STARTCHAR 0058
ENCODING 88
SWIDTH 660 0
DWIDTH 11 0
BBX 10 13 0 -2
BITMAP
7380
DEC0
8C40
C0C0
E1C0
7380
6180
4080
C0C0
8C40
DEC0
FFC0
7380
ENDCHAR
STARTCHAR 0059
ENCODING 89
SWIDTH 720 0
DWIDTH 12 0
BBX 11 13 0 -2
BITMAP
71C0
DB60
8E20
C460
E0C0
71C0
3180
1100
1100
1100
1100
1F00
1F00
ENDCHAR
STARTCHAR 005A
ENCODING 90
SWIDTH 600 0
DWIDTH 10 0
BBX 9 13 0 -2
BITMAP
FF00
8180
8080
F880
F180
6180
E780
8F80
8080
8080
8080
FF80
FF80
ENDCHAR
STARTCHAR 0061
ENCODING 97
SWIDTH 540 0
DWIDTH 9 0
BBX 8 10 0 0
BITMAP
1C
1E
3F
23
63
63
63
FF
E7
E7
ENDCHAR
STARTCHAR 0062
ENCODING 98
SWIDTH 540 0
DWIDTH 9 0
BBX 8 10 0 0
BITMAP
FC
FE
C6
C4
C4
FE
C7
C7
FE
FC
ENDCHAR
STARTCHAR 0063
ENCODING 99
SWIDTH 540 0
DWIDTH 9 0
BBX 8 10 0 0
BITMAP
1C
3E
67
42
C0
C0
C2
E7
7E
3C
ENDCHAR
STARTCHAR 0064
ENCODING 100
SWIDTH 480 0
DWIDTH 8 0
BBX 7 10 0 0
BITMAP
F0
F8
CC
C6
C6
C6
CC
DC
F8
F0
ENDCHAR
STARTCHAR 0065
ENCODING 101
SWIDTH 540 0
DWIDTH 9 0
BBX 8 10 0 0
BITMAP
FF
FF
C0
C0
FC
C0
C0
C0
FF
FF
ENDCHAR
STARTCHAR 0066
ENCODING 102
SWIDTH 540 0
DWIDTH 9 0
BBX 8 10 0 0
BITMAP
FF
FF
C0
C0
FC
C0
C0
C0
C0
C0
ENDCHAR
STARTCHAR 0067
ENCODING 103
SWIDTH 540 0
DWIDTH 9 0
BBX 8 10 0 0
BITMAP
1C
3E
67
40
CF
C3
C3
E7
7E
3C
ENDCHAR
STARTCHAR 0068
ENCODING 104
SWIDTH 540 0
DWIDTH 9 0
BBX 8 10 0 0
BITMAP
E3
E3
E3
E3
E3
FF
FF
C3
C3
C3
ENDCHAR
STARTCHAR 0069
ENCODING 105
SWIDTH 300 0
DWIDTH 5 0
BBX 4 10 0 0
BITMAP
F0
F0
F0
E0
E0
E0
E0
C0
C0
C0
ENDCHAR
STARTCHAR 006A
ENCODING 106
SWIDTH 540 0
DWIDTH 9 0
BBX 8 10 0 0
BITMAP
07
07
03
03
03
03
43
E7
7E
3C
ENDCHAR
STARTCHAR 006B
ENCODING 107
SWIDTH 480 0
DWIDTH 8 0
BBX 7 10 0 0
BITMAP
C4
CE
DC
F8
F0
F0
D8
DC
CE
C4
ENDCHAR
STARTCHAR 006C
ENCODING 108
SWIDTH 600 0
DWIDTH 10 0
BBX 9 10 0 0
BITMAP
3000
3000
3000
7000
6000
6000
6000
E000
FF80
FF80
ENDCHAR
STARTCHAR 006D
ENCODING 109
SWIDTH 600 0
DWIDTH 10 0
BBX 9 10 0 0
BITMAP
6300
6300
6300
6300
7700
7F00
7F00
DD80
C980
C180
ENDCHAR
STARTCHAR 006E
ENCODING 110
SWIDTH 540 0
DWIDTH 9 0
BBX 8 10 0 0
BITMAP
43
E3
F3
FB
DB
CF
C7
C7
C3
C0
ENDCHAR
STARTCHAR 006F
ENCODING 111
SWIDTH 540 0
DWIDTH 9 0
BBX 8 10 0 0
BITMAP
1C
3E
67
43
C3
C3
C3
E7
7E
3C
ENDCHAR
STARTCHAR 0070
ENCODING 112
SWIDTH 480 0
DWIDTH 8 0
BBX 7 10 0 0
BITMAP
F8
FC
C6
C6
C6
C4
FC
C0
C0
C0
ENDCHAR
STARTCHAR 0071
ENCODING 113
SWIDTH 600 0
DWIDTH 10 0
BBX 9 10 0 0
BITMAP
3C00
7E00
E700
C300
C300
C300
CF00
E700
7F80
3D00
ENDCHAR
STARTCHAR 0072
ENCODING 114
SWIDTH 540 0
DWIDTH 9 0
BBX 8 10 0 0
BITMAP
FC
FE
C3
C3
C2
C4
FC
CE
C7
C2
ENDCHAR
STARTCHAR 0073
ENCODING 115
SWIDTH 540 0
DWIDTH 9 0
BBX 8 10 0 0
BITMAP
3E
7F
E2
70
1E
06
43
E3
7F
3E
ENDCHAR
STARTCHAR 0074
ENCODING 116
SWIDTH 540 0
DWIDTH 9 0
BBX 8 10 0 0
BITMAP
FF
FF
18
18
18
18
18
38
38
38
ENDCHAR
STARTCHAR 0075
ENCODING 117
SWIDTH 600 0
DWIDTH 10 0
BBX 9 10 0 0
BITMAP
C000
C180
C180
C180
C180
C180
C180
E380
7F00
3E00
ENDCHAR
STARTCHAR 0076
ENCODING 118
SWIDTH 600 0
DWIDTH 10 0
BBX 9 10 0 0
BITMAP
4100
C180
E380
6300
6300
7700
3600
3E00
1C00
1C00
ENDCHAR
STARTCHAR 0077
ENCODING 119
SWIDTH 600 0
DWIDTH 10 0
BBX 9 10 0 0
BITMAP
C180
C180
C180
C180
C980
DD80
FF80
7700
6300
4100
ENDCHAR
STARTCHAR 0078
ENCODING 120
SWIDTH 540 0
DWIDTH 9 0
BBX 8 10 0 0
BITMAP
42
E7
7E
3C
18
18
3C
7E
E7
42
ENDCHAR
STARTCHAR 0079
ENCODING 121
SWIDTH 600 0
DWIDTH 10 0
BBX 9 10 0 0
BITMAP
4100
E380
7700
3E00
1C00
1C00
1C00
1C00
1C00
1C00
ENDCHAR
STARTCHAR 007A
ENCODING 122
SWIDTH 480 0
DWIDTH 8 0
BBX 7 10 0 0
BITMAP
FC
FE
0E
1C
38
70
60
E0
FE
FE
ENDCHAR
STARTCHAR 2019
ENCODING 8217
SWIDTH 180 0
DWIDTH 3 0
BBX 2 4 0 6
BITMAP
C0
C0
40
80
ENDCHAR
ENDFONT
